<svg width="55" height="18" viewBox="0 0 55 18" fill="none" xmlns="http://www.w3.org/2000/svg">
<path d="M16.5 9.2C9.62397 9.2 8.56612 3.73333 8.56612 0C8.56612 7.33333 3.80578 9.2 0.5 9.2C8.01074 9.2 8.56612 14.5333 8.56612 18C8.56612 10.64 13.1942 9.69751 16.5 9.2Z" fill="black"/>
<path d="M35.5 9.2C28.624 9.2 27.5661 3.73333 27.5661 0C27.5661 7.33333 22.8058 9.2 19.5 9.2C27.0107 9.2 27.5661 14.5333 27.5661 18C27.5661 10.64 32.1942 9.69751 35.5 9.2Z" fill="black"/>
<path d="M54.5 9.2C47.624 9.2 46.5661 3.73333 46.5661 0C46.5661 7.33333 41.8058 9.2 38.5 9.2C46.0107 9.2 46.5661 14.5333 46.5661 18C46.5661 10.64 51.1942 9.69751 54.5 9.2Z" fill="black"/>
</svg>
